<?xml version="1.0" encoding="UTF-8" standalone="no"?>
<!-- Generator: Adobe Illustrator 16.2.1, SVG Export Plug-In . SVG Version: 6.00 Build 0)  -->

<svg
   xmlns:dc="http://purl.org/dc/elements/1.1/"
   xmlns:cc="http://creativecommons.org/ns#"
   xmlns:rdf="http://www.w3.org/1999/02/22-rdf-syntax-ns#"
   xmlns:svg="http://www.w3.org/2000/svg"
   xmlns="http://www.w3.org/2000/svg"
   xmlns:sodipodi="http://sodipodi.sourceforge.net/DTD/sodipodi-0.dtd"
   xmlns:inkscape="http://www.inkscape.org/namespaces/inkscape"
   version="1.1"
   id="Layer_1"
   x="0px"
   y="0px"
   width="512px"
   height="512px"
   viewBox="0 0 512 512"
   style="enable-background:new 0 0 512 512;"
   xml:space="preserve"
   inkscape:version="0.91 r13725"
   sodipodi:docname="close-round-512px.svg"
   inkscape:export-filename="C:\Dokumente und Einstellungen\ROOT\Desktop\X8.png"
   inkscape:export-xdpi="1.8742678"
   inkscape:export-ydpi="1.8742678"><metadata
   id="metadata9"><rdf:RDF><cc:Work
       rdf:about=""><dc:format>image/svg+xml</dc:format><dc:type
         rdf:resource="http://purl.org/dc/dcmitype/StillImage" /></cc:Work></rdf:RDF></metadata><defs
   id="defs7" /><sodipodi:namedview
   pagecolor="#ffffff"
   bordercolor="#666666"
   borderopacity="1"
   objecttolerance="10"
   gridtolerance="10"
   guidetolerance="10"
   inkscape:pageopacity="0"
   inkscape:pageshadow="2"
   inkscape:window-width="1920"
   inkscape:window-height="1147"
   id="namedview5"
   showgrid="false"
   inkscape:zoom="0.4609375"
   inkscape:cx="-124.74576"
   inkscape:cy="251.66102"
   inkscape:window-x="-4"
   inkscape:window-y="-4"
   inkscape:window-maximized="1"
   inkscape:current-layer="Layer_1" />
<path
   d="M437.5,386.6L306.9,256l130.6-130.6c14.1-14.1,14.1-36.8,0-50.9c-14.1-14.1-36.8-14.1-50.9,0L256,205.1L125.4,74.5  c-14.1-14.1-36.8-14.1-50.9,0c-14.1,14.1-14.1,36.8,0,50.9L205.1,256L74.5,386.6c-14.1,14.1-14.1,36.8,0,50.9  c14.1,14.1,36.8,14.1,50.9,0L256,306.9l130.6,130.6c14.1,14.1,36.8,14.1,50.9,0C451.5,423.4,451.5,400.6,437.5,386.6z"
   fill="#000000"
   id="path3"
   inkscape:export-filename="C:\Dokumente und Einstellungen\ROOT\Desktop\path3.png"
   inkscape:export-xdpi="1.4057008"
   inkscape:export-ydpi="1.4057008"
   style="fill:#000000;fill-opacity:1" />
</svg>