<?xml version="1.0" encoding="UTF-8" standalone="no"?>
<!-- Generator: Adobe Illustrator 16.2.1, SVG Export Plug-In . SVG Version: 6.00 Build 0)  -->

<svg
   xmlns:dc="http://purl.org/dc/elements/1.1/"
   xmlns:cc="http://creativecommons.org/ns#"
   xmlns:rdf="http://www.w3.org/1999/02/22-rdf-syntax-ns#"
   xmlns:svg="http://www.w3.org/2000/svg"
   xmlns="http://www.w3.org/2000/svg"
   xmlns:sodipodi="http://sodipodi.sourceforge.net/DTD/sodipodi-0.dtd"
   xmlns:inkscape="http://www.inkscape.org/namespaces/inkscape"
   version="1.1"
   id="Layer_1"
   x="0px"
   y="0px"
   width="512px"
   height="512px"
   viewBox="0 0 512 512"
   style="enable-background:new 0 0 512 512;"
   xml:space="preserve"
   inkscape:version="0.91 r13725"
   sodipodi:docname="Minimize.svg"><metadata
   id="metadata9"><rdf:RDF><cc:Work
       rdf:about=""><dc:format>image/svg+xml</dc:format><dc:type
         rdf:resource="http://purl.org/dc/dcmitype/StillImage" /><dc:title></dc:title></cc:Work></rdf:RDF></metadata><defs
   id="defs7" /><sodipodi:namedview
   pagecolor="#ffffff"
   bordercolor="#666666"
   borderopacity="1"
   objecttolerance="10"
   gridtolerance="10"
   guidetolerance="10"
   inkscape:pageopacity="0"
   inkscape:pageshadow="2"
   inkscape:window-width="1920"
   inkscape:window-height="1147"
   id="namedview5"
   showgrid="false"
   inkscape:zoom="2.6074563"
   inkscape:cx="226.81041"
   inkscape:cy="272.68478"
   inkscape:window-x="-4"
   inkscape:window-y="-4"
   inkscape:window-maximized="1"
   inkscape:current-layer="Layer_1" />
<path
   d="m 111.70874,201.55944 c -15.049971,0 -27.554227,11.34495 -30.113279,26.32812 -0.01667,0.0968 -0.03299,0.19349 -0.04883,0.29102 -0.07659,0.47376 -0.142734,0.95098 -0.199219,1.43164 -0.0082,0.0699 -0.01764,0.13871 -0.02539,0.20899 -0.06005,0.54034 -0.106582,1.08452 -0.140625,1.63281 -0.002,0.0315 -0.0059,0.0622 -0.0078,0.0937 -0.02771,0.46735 -0.04241,0.93752 -0.05078,1.41015 -0.0032,0.13622 -0.01381,0.2669 -0.01563,0.4043 2.87e-4,0.0212 0.0036,0.0413 0.0039,0.0625 -1.84e-4,0.0458 -0.0039,0.0908 -0.0039,0.13672 0,17.7 13.701562,32 30.601563,32 l 59.03321,0 c 2.73685,0.0136 5.28974,0.0126 7.4082,0 l 7.35742,0 143.20117,0 7.35743,0 c 2.11845,0.0126 4.67134,0.0136 7.4082,0 l 59.0332,0 c 16.9,0 30.59961,-14.3 30.59961,-32 0,-0.0465 -0.004,-0.0922 -0.004,-0.13867 3.4e-4,-0.0205 0.004,-0.04 0.004,-0.0605 -0.002,-0.13009 -0.0107,-0.25378 -0.0137,-0.38281 -0.008,-0.4806 -0.0245,-0.95845 -0.0527,-1.43359 -0.002,-0.0307 -0.004,-0.0611 -0.006,-0.0918 -0.034,-0.54829 -0.0806,-1.09247 -0.14062,-1.63281 -0.008,-0.0703 -0.0172,-0.13906 -0.0254,-0.20899 -0.0565,-0.48066 -0.12263,-0.95788 -0.19922,-1.43164 -0.0158,-0.0975 -0.0322,-0.1942 -0.0488,-0.29102 -2.55905,-14.98317 -15.06331,-26.32812 -30.11328,-26.32812 l -73.79883,0 -143.20117,0 -73.79883,0 z"
   id="path3"
   inkscape:connector-curvature="0" />
</svg>